<?xml version="1.0" standalone="no"?>
<!DOCTYPE svg PUBLIC "-//W3C//DTD SVG 20010904//EN"
 "http://www.w3.org/TR/2001/REC-SVG-20010904/DTD/svg10.dtd">
<svg version="1.0" xmlns="http://www.w3.org/2000/svg"
 width="1920.000000pt" height="1080.000000pt" viewBox="0 0 1920.000000 1080.000000"
 preserveAspectRatio="xMidYMid meet">
<metadata>
Created by potrace 1.16, written by Peter Selinger 2001-2019
</metadata>
<g transform="translate(0.000000,1080.000000) scale(0.100000,-0.100000)"
fill="#000000" stroke="none">
<path d="M7230 8869 c-91 -8 -178 -34 -245 -74 -58 -33 -134 -119 -168 -189
-57 -116 -57 -116 -57 -1222 l0 -1014 220 0 220 0 0 988 c0 920 1 989 18 1022
42 84 169 94 239 18 20 -21 673 -1436 768 -1664 23 -55 58 -125 77 -155 116
-182 304 -269 553 -255 232 12 378 92 462 252 65 122 63 84 63 1222 l0 1032
-220 0 -220 0 0 -985 c0 -1068 2 -1034 -54 -1070 -59 -39 -150 -28 -200 24
-24 25 -586 1235 -762 1639 -135 311 -269 417 -549 435 -33 2 -98 0 -145 -4z"/>
<path d="M300 8611 l0 -220 698 -3 697 -3 47 -23 c57 -29 112 -88 142 -151 17
-37 21 -65 21 -141 0 -88 -3 -101 -33 -163 -24 -47 -47 -78 -75 -99 -90 -66
-58 -62 -667 -68 -530 -6 -558 -7 -618 -27 -113 -38 -167 -99 -196 -223 -13
-54 -16 -155 -16 -592 l0 -528 220 0 220 0 0 459 c0 414 2 460 17 472 13 11
112 15 512 19 l496 6 80 27 c332 112 508 370 507 741 -2 366 -182 610 -522
708 -73 21 -93 22 -802 25 l-728 4 0 -220z"/>
<path d="M2770 7600 l0 -1230 220 0 220 0 0 1230 0 1230 -220 0 -220 0 0
-1230z"/>
<path d="M4575 8814 c-356 -54 -625 -249 -752 -544 -83 -194 -117 -386 -117
-675 0 -423 87 -711 278 -922 109 -120 288 -221 481 -270 l110 -28 410 0 410
0 110 28 c429 109 666 391 742 879 23 155 23 471 0 626 -83 534 -366 833 -859
906 -139 21 -679 21 -813 0z m820 -448 c298 -87 425 -315 425 -765 0 -476
-134 -702 -460 -776 -99 -22 -449 -31 -623 -16 -390 34 -550 210 -589 648 -21
242 12 482 87 640 74 154 227 255 430 286 17 3 174 4 350 2 269 -2 330 -5 380
-19z"/>
<path d="M10486 8819 c-187 -27 -329 -92 -436 -199 -126 -125 -173 -251 -174
-465 0 -132 16 -212 61 -305 33 -69 149 -186 219 -221 l51 -25 -56 -30 c-69
-36 -177 -142 -214 -211 -45 -84 -67 -190 -67 -323 0 -307 131 -505 401 -607
164 -61 187 -63 965 -63 l704 0 0 215 0 215 -617 0 c-340 0 -656 4 -703 10
-170 19 -265 97 -290 237 -22 123 17 232 103 290 88 59 66 57 805 61 l682 3 0
199 0 199 -667 3 c-614 3 -672 5 -722 22 -135 45 -194 125 -194 266 -1 129 62
228 173 273 55 22 56 22 743 25 l687 3 0 219 0 220 -697 -1 c-384 -1 -725 -5
-757 -10z"/>
<path d="M13006 8819 c-187 -27 -329 -92 -436 -199 -126 -125 -173 -251 -174
-465 0 -132 16 -212 61 -305 33 -69 149 -186 219 -221 l51 -25 -56 -30 c-69
-36 -177 -142 -214 -211 -45 -84 -67 -190 -67 -323 0 -307 131 -505 401 -607
164 -61 187 -63 965 -63 l704 0 0 215 0 215 -617 0 c-340 0 -656 4 -703 10
-170 19 -265 97 -290 237 -22 123 17 232 103 290 88 59 66 57 805 61 l682 3 0
199 0 199 -667 3 c-614 3 -672 5 -722 22 -135 45 -194 125 -194 266 -1 129 62
228 173 273 55 22 56 22 743 25 l687 3 0 219 0 220 -697 -1 c-384 -1 -725 -5
-757 -10z"/>
<path d="M15000 8611 l0 -220 733 -3 c721 -3 733 -3 778 -24 123 -57 187 -192
167 -349 -16 -116 -77 -203 -177 -249 -45 -20 -63 -21 -636 -26 -566 -6 -593
-7 -653 -27 -113 -38 -167 -99 -196 -223 -13 -54 -16 -155 -16 -592 l0 -528
220 0 220 0 0 459 c0 414 2 460 17 472 13 11 81 14 346 14 l329 0 278 -470
277 -470 248 -3 247 -2 -26 44 c-14 24 -142 244 -285 489 l-259 446 37 12
c158 51 316 189 390 339 65 134 83 219 84 390 0 164 -17 249 -73 361 -86 172
-241 293 -449 352 -74 21 -93 22 -838 25 l-763 3 0 -220z"/>
<path d="M300 4271 l0 -220 733 -3 c721 -3 733 -3 778 -24 123 -57 187 -192
167 -349 -16 -116 -77 -203 -177 -249 -45 -20 -63 -21 -636 -26 -566 -6 -593
-7 -653 -27 -113 -38 -167 -99 -196 -223 -13 -54 -16 -155 -16 -592 l0 -528
220 0 220 0 0 459 c0 414 2 460 17 472 13 11 81 14 346 14 l329 0 278 -470
277 -470 248 -3 247 -2 -26 44 c-14 24 -142 244 -285 489 l-259 446 37 12
c158 51 316 189 390 339 65 134 83 219 84 390 0 164 -17 249 -73 361 -86 172
-241 293 -449 352 -74 21 -93 22 -838 25 l-763 3 0 -220z"/>
<path d="M3635 4474 c-356 -54 -625 -249 -752 -544 -83 -194 -117 -386 -117
-675 0 -423 87 -711 278 -922 109 -120 288 -221 481 -270 l110 -28 410 0 410
0 110 28 c429 109 666 391 742 879 23 155 23 471 0 626 -83 534 -366 833 -859
906 -139 21 -679 21 -813 0z m820 -448 c298 -87 425 -315 425 -765 0 -476
-134 -702 -460 -776 -99 -22 -449 -31 -623 -16 -390 34 -550 210 -589 648 -21
242 12 482 87 640 74 154 227 255 430 286 17 3 174 4 350 2 269 -2 330 -5 380
-19z"/>
<path d="M5924 4471 c-53 -24 -80 -60 -93 -122 -13 -61 -15 -2111 -2 -2178 10
-48 33 -84 75 -115 27 -21 36 -21 739 -21 l712 0 85 23 c341 94 510 308 510
647 0 257 -97 430 -301 537 l-46 25 56 29 c84 44 182 141 220 218 39 79 61
189 61 302 0 298 -145 516 -407 611 -158 57 -143 56 -883 60 -653 3 -687 2
-726 -16z m1376 -434 c104 -41 159 -103 186 -209 42 -163 -29 -299 -183 -349
-66 -22 -83 -23 -555 -27 l-488 -4 0 300 c0 231 3 302 13 306 6 3 230 4 497 3
437 -2 489 -4 530 -20z m7 -970 c79 -26 133 -72 168 -142 27 -53 30 -70 30
-151 0 -81 -3 -97 -30 -149 -35 -69 -91 -116 -168 -142 -46 -15 -109 -18 -527
-21 -261 -2 -485 -1 -497 3 l-23 5 0 311 0 310 498 -3 c438 -3 503 -6 549 -21z"/>
<path d="M9225 4474 c-356 -54 -625 -249 -752 -544 -83 -194 -117 -386 -117
-675 0 -423 87 -711 278 -922 109 -120 288 -221 481 -270 l110 -28 410 0 410
0 110 28 c429 109 666 391 742 879 23 155 23 471 0 626 -83 534 -366 833 -859
906 -139 21 -679 21 -813 0z m820 -448 c298 -87 425 -315 425 -765 0 -476
-134 -702 -460 -776 -99 -22 -449 -31 -623 -16 -390 34 -550 210 -589 648 -21
242 12 482 87 640 74 154 227 255 430 286 17 3 174 4 350 2 269 -2 330 -5 380
-19z"/>
<path d="M11150 4270 l0 -220 360 0 360 0 0 -1010 0 -1010 220 0 220 0 0 1010
0 1010 360 0 360 0 0 220 0 220 -940 0 -940 0 0 -220z"/>
<path d="M13420 3260 l0 -1230 220 0 220 0 0 1230 0 1230 -220 0 -220 0 0
-1230z"/>
<path d="M15220 4473 c-122 -18 -283 -72 -378 -126 -93 -52 -227 -177 -287
-267 -139 -209 -199 -459 -199 -825 0 -311 37 -501 134 -701 137 -283 380
-453 723 -509 74 -12 204 -15 650 -15 l557 0 0 215 0 215 -472 0 c-607 1 -705
10 -846 77 -80 39 -181 141 -220 223 -72 152 -105 402 -84 634 34 374 154 552
427 632 54 16 121 18 628 21 l567 4 0 220 0 219 -552 -1 c-430 -1 -574 -4
-648 -16z"/>
<path d="M17420 4483 c-105 -16 -188 -41 -269 -80 -163 -78 -262 -201 -313
-388 -28 -105 -30 -332 -5 -445 42 -183 148 -322 306 -404 163 -84 191 -88
711 -96 429 -6 459 -8 522 -28 132 -44 202 -139 202 -277 0 -167 -96 -273
-267 -295 -39 -5 -384 -10 -764 -10 l-693 0 0 -215 0 -215 768 0 c868 0 870 0
1033 78 189 89 299 230 345 445 21 96 20 298 -1 402 -59 292 -278 472 -625
515 -46 5 -252 10 -457 10 -237 0 -391 4 -425 11 -72 16 -139 51 -176 93 -67
76 -79 223 -28 323 28 56 54 82 116 114 l45 24 693 3 692 3 0 219 0 220 -692
-1 c-381 -1 -704 -3 -718 -6z"/>
</g>
</svg>
